<?xml version="1.0" encoding="utf-8"?>
<!-- Generator: Adobe Illustrator 21.1.0, SVG Export Plug-In . SVG Version: 6.00 Build 0)  -->
<svg version="1.1" xmlns="http://www.w3.org/2000/svg" xmlns:xlink="http://www.w3.org/1999/xlink" x="0px" y="0px"
	 viewBox="0 0 450 6.7" style="enable-background:new 0 0 450 6.7;" xml:space="preserve">
<style type="text/css">
	.st0{display:none;}
	.st1{display:inline;fill:none;stroke:#000000;stroke-miterlimit:10;}
	.st2{display:inline;}
	.st3{fill:#ED7058;}
	.st4{fill:#3EAC6D;}
	.st5{fill:#298EBF;}
	.st6{fill:#933D60;}
	.st7{fill:#02152A;}
	.st8{display:none;fill:none;}
	.st9{fill:none;}
	.st10{opacity:0.3;fill:#D8D8D8;enable-background:new    ;}
</style>
<g id="Layer_2_1_" class="st0">
	<line class="st1" x1="225" y1="0" x2="225" y2="150"/>
	<line class="st1" x1="0" y1="75" x2="450" y2="75"/>
	<line class="st1" x1="225" y1="0" x2="0" y2="0"/>
	<line class="st1" x1="112.5" y1="150" x2="112.5" y2="0"/>
	<line class="st1" x1="450" y1="0" x2="225" y2="0"/>
	<line class="st1" x1="337.5" y1="150" x2="337.5" y2="0"/>
</g>
<g id="Layer_1" class="st0">
	<g class="st2">
		<path class="st3" d="M41.8,86.6c-13.2-0.3-25.5,3.1-26.5-1.5C18,75.8,36.6,85,53.8,84c13.2,0.3,25.5-3.1,26.5,1.5
			C77.7,94.8,59.2,85.7,41.8,86.6z"/>
	</g>
	<g class="st2">
		<path class="st4" d="M69.4,115c-13.2-0.3-25.5,3.1-26.5-1.5c2.6-9.3,21.2-0.1,38.4-1.1c13.2,0.3,25.5-3.1,26.5,1.5
			C105.2,123.1,86.6,113.9,69.4,115z"/>
	</g>
	<g class="st2">
		<path class="st5" d="M25.3,142.9c-13.2-0.3-25.5,3.1-26.5-1.5c2.6-9.3,21.2-0.1,38.4-1.1c13.2,0.3,25.5-3.1,26.5,1.5
			C61.2,151,42.6,141.8,25.3,142.9z"/>
	</g>
	<g class="st2">
		<path class="st3" d="M132.1,143.6c-13.2-0.3-25.5,3.1-26.5-1.5c2.6-9.3,21.2-0.1,38.4-1.1c13.2,0.3,25.5-3.1,26.5,1.5
			C167.9,151.8,149.3,142.6,132.1,143.6z"/>
	</g>
	<g class="st2">
		<path class="st6" d="M175.7,115.5c-13.2-0.3-25.5,3.1-26.5-1.5c2.6-9.3,21.2-0.1,38.4-1.1c13.2,0.3,25.5-3.1,26.5,1.5
			C211.5,123.7,192.9,114.5,175.7,115.5z"/>
	</g>
	<g class="st2">
		<path class="st5" d="M148.8,86.9c-13.2-0.3-25.5,3.1-26.5-1.5c2.6-9.3,21.2-0.1,38.4-1.1c13.2,0.3,25.5-3.1,26.5,1.5
			C184.6,95,166,85.9,148.8,86.9z"/>
	</g>
	<g class="st2">
		<path class="st4" d="M-19.8,57.2C-33,57-45.3,60.4-46.2,55.7c2.6-9.3,21.2-0.1,38.4-1.1c13.2,0.3,25.5-3.1,26.5,1.5
			C16.1,65.4-2.5,56.2-19.8,57.2z"/>
	</g>
	<g class="st2">
		<path class="st6" d="M86.3,58c-13.2-0.3-25.5,3.1-26.5-1.5c2.6-9.3,21.2-0.1,38.4-1.1c13.2,0.3,25.5-3.1,26.5,1.5
			C122.1,66.1,103.5,56.9,86.3,58z"/>
	</g>
	<g class="st2">
		<path class="st5" d="M238.2,144.2c-13.2-0.3-25.5,3.1-26.5-1.5c2.6-9.3,21.2-0.1,38.4-1.1c13.2,0.3,25.5-3.1,26.5,1.5
			C274,152.3,255.4,143.1,238.2,144.2z"/>
	</g>
	<g class="st2">
		<path class="st3" d="M255,87.1c-13.2-0.3-25.5,3.1-26.5-1.5c2.6-9.3,21.2-0.1,38.4-1.1c13.2,0.3,25.5-3.1,26.5,1.5
			C290.8,95.3,272.2,86.1,255,87.1z"/>
	</g>
	<g class="st2">
		<path class="st3" d="M255.2,87.5c-13.2-0.3-25.5,3.1-26.5-1.5c2.6-9.3,21.2-0.1,38.4-1.1c13.2,0.3,25.5-3.1,26.5,1.5
			C291.1,95.7,272.5,86.5,255.2,87.5z"/>
	</g>
	<g class="st2">
		<path class="st4" d="M282.8,115.9c-13.2-0.3-25.5,3.1-26.5-1.5c2.6-9.3,21.2-0.1,38.4-1.1c13.2,0.3,25.5-3.1,26.5,1.5
			C318.6,124,300,114.8,282.8,115.9z"/>
	</g>
	<g class="st2">
		<path class="st5" d="M238.7,143.7c-13.2-0.3-25.5,3.1-26.5-1.5c2.6-9.3,21.2-0.1,38.4-1.1c13.2,0.3,25.5-3.1,26.5,1.5
			C274.5,151.9,255.9,142.7,238.7,143.7z"/>
	</g>
	<g class="st2">
		<path class="st3" d="M345.5,144.5c-13.2-0.3-25.5,3.1-26.5-1.5c2.6-9.3,21.2-0.1,38.4-1.1c13.2,0.3,25.5-3.1,26.5,1.5
			C381.3,152.6,362.7,143.5,345.5,144.5z"/>
	</g>
	<g class="st2">
		<path class="st6" d="M389.1,116.4c-13.2-0.3-25.5,3.1-26.5-1.5c2.6-9.3,21.2-0.1,38.4-1.1c13.2,0.3,25.5-3.1,26.5,1.5
			C424.9,124.5,406.3,115.4,389.1,116.4z"/>
	</g>
	<g class="st2">
		<path class="st5" d="M362.2,87.8c-13.2-0.3-25.5,3.1-26.5-1.5c2.6-9.3,21.2-0.1,38.4-1.1c13.2,0.3,25.5-3.1,26.5,1.5
			C398,95.9,379.4,86.8,362.2,87.8z"/>
	</g>
	<g class="st2">
		<path class="st4" d="M193.6,58.1c-13.2-0.3-25.5,3.1-26.5-1.5c2.6-9.3,21.2-0.1,38.4-1.1c13.2,0.3,25.5-3.1,26.5,1.5
			C229.5,66.3,210.9,57.1,193.6,58.1z"/>
	</g>
	<g class="st2">
		<path class="st6" d="M299.6,58.9c-13.2-0.3-25.5,3.1-26.5-1.5c2.6-9.3,21.2-0.1,38.4-1.1c13.2,0.3,25.5-3.1,26.5,1.5
			C335.5,67,316.9,57.8,299.6,58.9z"/>
	</g>
	<g class="st2">
		<path class="st5" d="M451.6,145.1c-13.2-0.3-25.5,3.1-26.5-1.5c2.6-9.3,21.2-0.1,38.4-1.1c13.2,0.3,25.5-3.1,26.5,1.5
			C487.4,153.2,468.8,144,451.6,145.1z"/>
	</g>
	<g class="st2">
		<path class="st3" d="M468.4,88c-13.2-0.3-25.5,3.1-26.5-1.5c2.6-9.3,21.2-0.1,38.4-1.1c13.2,0.3,25.5-3.1,26.5,1.5
			C504.2,96.2,485.6,87,468.4,88z"/>
	</g>
	<g class="st2">
		<path class="st3" d="M166.1,31c-13.2-0.3-25.5,3.1-26.5-1.5c2.6-9.3,21.2-0.1,38.4-1.1c13.2,0.3,25.5-3.1,26.5,1.5
			C201.9,39.2,183.4,30,166.1,31z"/>
	</g>
	<g class="st2">
		<path class="st5" d="M60.4,29.9C47.2,29.7,34.9,33,34,28.4c2.6-9.3,21.2-0.1,38.4-1.1c13.2,0.3,25.5-3.1,26.5,1.5
			C96.3,38.1,77.7,28.9,60.4,29.9z"/>
	</g>
	<g class="st2">
		<path class="st5" d="M273,31.2c-13.2-0.3-25.5,3.1-26.5-1.5c2.6-9.3,21.2-0.1,38.4-1.1c13.2,0.3,25.5-3.1,26.5,1.5
			C308.9,39.4,290.3,30.2,273,31.2z"/>
	</g>
	<g class="st2">
		<path class="st4" d="M104.5,1.6C91.2,1.3,79,4.7,78,0c2.6-9.3,21.2-0.1,38.4-1.1c13.2,0.3,25.5-3.1,26.5,1.5
			C140.3,9.7,121.7,0.5,104.5,1.6z"/>
	</g>
	<g class="st2">
		<path class="st6" d="M210.5,2.3C197.2,2.1,185,5.4,184,0.8c2.6-9.3,21.2-0.1,38.4-1.1c13.2,0.3,25.5-3.1,26.5,1.5
			C246.3,10.4,227.7,1.3,210.5,2.3z"/>
	</g>
	<g class="st2">
		<path class="st6" d="M-2.8,0.3C-16,0-28.3,3.4-29.3-1.2c2.6-9.3,21.2-0.1,38.4-1.1c13.2,0.3,25.5-3.1,26.5,1.5
			C33.1,8.4,14.4-0.7-2.8,0.3z"/>
	</g>
	<g class="st2">
		<path class="st3" d="M379.5,31.9C366.2,31.6,354,35,353,30.3c2.6-9.3,21.2-0.1,38.4-1.1c13.2,0.3,25.5-3.1,26.5,1.5
			C415.3,40.1,396.8,30.9,379.5,31.9z"/>
	</g>
	<g class="st2">
		<path class="st4" d="M407,60.2c-13.2-0.3-25.5,3.1-26.5-1.5c2.6-9.3,21.2-0.1,38.4-1.1c13.2,0.3,25.5-3.1,26.5,1.5
			C442.8,68.3,424.2,59.2,407,60.2z"/>
	</g>
	<g class="st2">
		<path class="st5" d="M362.9,88.1c-13.2-0.3-25.5,3.1-26.5-1.5c2.6-9.3,21.2-0.1,38.4-1.1c13.2,0.3,25.5-3.1,26.5,1.5
			C398.8,96.2,380.2,87,362.9,88.1z"/>
	</g>
	<g class="st2">
		<path class="st3" d="M469.7,88.8c-13.2-0.3-25.5,3.1-26.5-1.5c2.6-9.3,21.2-0.1,38.4-1.1c13.2,0.3,25.5-3.1,26.5,1.5
			C505.5,97,486.9,87.8,469.7,88.8z"/>
	</g>
	<g class="st2">
		<path class="st4" d="M317.9,2.5c-13.2-0.3-25.5,3.1-26.5-1.5c2.6-9.3,21.2-0.1,38.4-1.1c13.2,0.3,25.5-3.1,26.5,1.5
			C353.7,10.6,335.1,1.4,317.9,2.5z"/>
	</g>
	<g class="st2">
		<path class="st6" d="M423.9,3.2c-13.2-0.3-25.5,3.1-26.5-1.5c2.6-9.3,21.2-0.1,38.4-1.1c13.2,0.3,25.5-3.1,26.5,1.5
			C459.7,11.3,441.1,2.2,423.9,3.2z"/>
	</g>
</g>
<g id="Layer_3" class="st0">
	<g id="Layer_1_1_" class="st2">
		<ellipse class="st7" cx="112.5" cy="75" rx="89.9" ry="65.9"/>
		<rect x="46" y="42.4" class="st8" width="133.1" height="25.3"/>
		<text transform="matrix(1.3659 0 0 1 60.8857 49.2795)" style="fill:#D8D8D8; font-family:'Lato-Regular'; font-size:9.3333px;">Where am I on my </text>
		<text transform="matrix(1.3659 0 0 1 56.0586 60.4792)" style="fill:#D8D8D8; font-family:'Lato-Regular'; font-size:9.3333px;">Watson Fellowship?</text>
		<rect x="42.2" y="79.9" class="st9" width="140.9" height="48.7"/>
		<text transform="matrix(1.3659 0 0 1 59.623 91.2121)" style="fill:#D8D8D8; font-family:'Lato-Regular'; font-size:15.3333px;">Amsterdam</text>
		<text transform="matrix(1.3659 0 0 1 68.5117 105.6125)" style="fill:#D8D8D8; font-family:'Lato-Regular'; font-size:12px;">Netherlands</text>
		<path class="st10" d="M36.4,66.1c0-26.7,34.1-48.2,76.2-48.2s76.2,21.6,76.2,48.2"/>
	</g>
	<g id="Layer_1_2_" class="st2">
		<ellipse class="st7" cx="337.5" cy="75" rx="85.6" ry="65.9"/>
		<rect x="274.2" y="42.4" class="st8" width="126.6" height="25.3"/>
		<text transform="matrix(1.3001 0 0 1 288.373 49.2795)" style="fill:#D8D8D8; font-family:'Lato-Regular'; font-size:9.3333px;">Where am I on my </text>
		<text transform="matrix(1.3001 0 0 1 283.7793 60.4792)" style="fill:#D8D8D8; font-family:'Lato-Regular'; font-size:9.3333px;">Watson Fellowship?</text>
		<rect x="270.6" y="79.9" class="st9" width="134.1" height="48.7"/>
		
			<text transform="matrix(1.3001 0 0 1 287.1709 91.2121)" style="fill:#D8D8D8; font-family:'Lato-Regular'; font-size:15.3333px;">Amsterdam</text>
		<text transform="matrix(1.3001 0 0 1 295.6318 105.6125)" style="fill:#D8D8D8; font-family:'Lato-Regular'; font-size:12px;">Netherlands</text>
		<path class="st10" d="M265,66.1c0-26.7,32.4-48.2,72.6-48.2s72.6,21.6,72.6,48.2"/>
	</g>
</g>
<g id="Layer_4">
	<rect x="0" y="3.3" class="st6" width="450" height="3.3"/>
	<rect class="st5" width="450" height="3.3"/>
</g>
</svg>
