<?xml version="1.0" encoding="utf-8"?>
<!-- Generator: Adobe Illustrator 21.1.0, SVG Export Plug-In . SVG Version: 6.00 Build 0)  -->
<svg version="1.1" xmlns="http://www.w3.org/2000/svg" xmlns:xlink="http://www.w3.org/1999/xlink" x="0px" y="0px"
	 viewBox="0 0 452.5 226.4" style="enable-background:new 0 0 452.5 226.4;" xml:space="preserve">
<style type="text/css">
	.st0{fill:#933D60;}
	.st1{fill:#ED7058;}
	.st2{fill:#298EBF;}
	.st3{fill:#3EAC6D;}
	.st4{fill:#02152A;}
	.st5{opacity:0.25;}
	.st6{fill:#D8D8D8;}
	.st7{fill:none;}
	.st8{font-family:'Lato';}
	.st9{font-size:18px;}
	.st10{font-family:'Lato';}
	.st11{font-size:38px;}
	.st12{font-family:'Lato';}
	.st13{font-size:24px;}
	.st14{display:none;opacity:0.25;}
	.st15{display:inline;fill:#D8D8D8;}
</style>
<g id="Layer_2">
	<g>
		<path class="st0" d="M193,64c-2,10.6-19.5,0.3-38.9-1.8c-25.1-5.8-53.5,11.7-56.1-10.4c2-10.6,19.5-0.3,38.9,1.8
			C162,59.4,190.4,41.9,193,64z"/>
	</g>
	<g>
		<path class="st1" d="M132.9-9c-2,10.6-19.5,0.3-38.9-1.8C68.9-16.6,40.5,1,37.9-21.1c2-10.6,19.5-0.3,38.9,1.8
			C101.9-13.5,130.3-31,132.9-9z"/>
	</g>
	<g>
		<path class="st1" d="M304.8,144.4c-2,10.6-19.5,0.3-38.9-1.8c-25.1-5.8-53.5,11.7-56.1-10.4c2-10.6,19.5-0.3,38.9,1.8
			C273.8,139.9,302.2,122.3,304.8,144.4z"/>
	</g>
	<g>
		<path class="st2" d="M150.1,125.4c-2,10.6-19.5,0.3-38.9-1.8c-25.1-5.8-53.5,11.7-56.1-10.4c2-10.6,19.5-0.3,38.9,1.8
			C119.1,120.9,147.5,103.4,150.1,125.4z"/>
	</g>
	<g>
		<path class="st3" d="M348.7,84.3c-2,10.6-19.5,0.3-38.9-1.8c-25.1-5.8-53.5,11.7-56.1-10.4c2-10.6,19.5-0.3,38.9,1.8
			C317.7,79.8,346.1,62.3,348.7,84.3z"/>
	</g>
	<g>
		<path class="st2" d="M287.8,10.8c-2,10.6-19.5,0.3-38.9-1.8c-25.1-5.8-53.5,11.7-56.1-10.4c2-10.6,19.5-0.3,38.9,1.8
			C256.8,6.2,285.2-11.3,287.8,10.8z"/>
	</g>
	<g>
		<path class="st1" d="M444,30.7c-2,10.6-19.5,0.3-38.9-1.8c-25.1-5.8-53.5,11.7-56.1-10.4c2-10.6,19.5-0.3,38.9,1.8
			C413.1,26.2,441.4,8.6,444,30.7z"/>
	</g>
	<g>
		<path class="st0" d="M504.3,104.7c-2,10.6-19.5,0.3-38.9-1.8c-25.1-5.8-53.5,11.7-56.1-10.4c2-10.6,19.5-0.3,38.9,1.8
			C473.3,100.1,501.7,82.6,504.3,104.7z"/>
	</g>
	<g>
		<path class="st2" d="M461.2,165.5c-2,10.6-19.5,0.3-38.9-1.8c-25.1-5.8-53.5,11.7-56.1-10.4c2-10.6,19.5-0.3,38.9,1.8
			C430.3,161,458.6,143.5,461.2,165.5z"/>
	</g>
	<g>
		<path class="st3" d="M210.9,200.1c-2,10.6-19.5,0.3-38.9-1.8c-25.1-5.8-53.5,11.7-56.1-10.4c2-10.6,19.5-0.3,38.9,1.8
			C179.9,195.6,208.3,178.1,210.9,200.1z"/>
	</g>
	<g>
		<path class="st0" d="M366,219.9c-2,10.6-19.5,0.3-38.9-1.8c-25.1-5.8-53.5,11.7-56.1-10.4c2-10.6,19.5-0.3,38.9,1.8
			C335,215.4,363.4,197.9,366,219.9z"/>
	</g>
	<g>
		<path class="st2" d="M599.4,50.8c-2,10.6-19.5,0.3-38.9-1.8c-25.1-5.8-53.5,11.7-56.1-10.4c2-10.6,19.5-0.3,38.9,1.8
			C568.4,46.3,596.8,28.8,599.4,50.8z"/>
	</g>
	<g>
		<path class="st1" d="M616.7,186.5c-2,10.6-19.5,0.3-38.9-1.8c-25.1-5.8-53.5,11.7-56.1-10.4c2-10.6,19.5-0.3,38.9,1.8
			C585.7,182,614.1,164.5,616.7,186.5z"/>
	</g>
	<g>
		<path class="st3" d="M36.4,45.7C34.4,56.3,16.9,46-2.5,44C-27.6,38.2-56,55.7-58.6,33.6c2-10.6,19.5-0.3,38.9,1.8
			C5.4,41.2,33.8,23.7,36.4,45.7z"/>
	</g>
	<g>
		<path class="st0" d="M53.8,181.3c-2,10.6-19.5,0.3-38.9-1.8c-25.1-5.8-53.5,11.7-56.1-10.4c2-10.6,19.5-0.3,38.9,1.8
			C22.8,176.8,51.2,159.3,53.8,181.3z"/>
	</g>
</g>
<g id="Layer_1">
	<ellipse class="st4" cx="226.1" cy="113.2" rx="99.2" ry="98.8"/>
	<g class="st5">
		<path class="st6" d="M299.5,102.3c-48.9,0-97.9,0-146.8,0c0-10.9,0-21.8,0-32.7c34.7-52.8,112.1-52.8,146.8,0
			C299.5,80.5,299.5,91.4,299.5,102.3z"/>
	</g>
	<rect x="152.7" y="64.3" class="st7" width="146.8" height="38"/>
	<text transform="matrix(1.0046 0 0 1 162.0833 75.8835)"><tspan x="0" y="0" class="st6 st8 st9">Where am I on my </tspan><tspan x="-6.1" y="18.8" class="st6 st8 st9">Watson Fellowship?</tspan></text>
	<rect x="148.5" y="120.6" class="st7" width="155.4" height="73.1"/>
	<text transform="matrix(1.0046 0 0 1 184.2547 146.2932)"><tspan x="0" y="0" class="st6 st10 st11">Kigali</tspan><tspan x="3.3" y="27.2" class="st6 st12 st13">Rwanda</tspan></text>
	<g class="st14">
		<path class="st15" d="M423.1,118.1c-55.8,0-111.7,0-167.5,0c0,15.2,0,30.3,0,45.5c39.6,60.3,127.9,60.3,167.5,0
			C423.1,148.5,423.1,133.3,423.1,118.1z"/>
	</g>
</g>
</svg>
