<?xml version="1.0" encoding="utf-8"?>
<!-- Generator: Adobe Illustrator 21.1.0, SVG Export Plug-In . SVG Version: 6.00 Build 0)  -->
<svg version="1.1" id="Layer_1" xmlns="http://www.w3.org/2000/svg" xmlns:xlink="http://www.w3.org/1999/xlink" x="0px" y="0px"
	 viewBox="0 0 226.4 226.4" style="enable-background:new 0 0 226.4 226.4;" xml:space="preserve">
<style type="text/css">
	.st0{fill:#02152A;}
	.st1{opacity:0.25;}
	.st2{fill:#D8D8D8;}
	.st3{fill:none;}
	.st4{font-family:'Lato';}
	.st5{font-size:18px;}
	.st6{font-family:'Lato';}
	.st7{font-size:26px;}
	.st8{font-family:'Lato';}
	.st9{font-size:22px;}
	.st10{display:none;opacity:0.25;}
	.st11{display:inline;fill:#D8D8D8;}
</style>
<circle class="st0" cx="113.2" cy="113.2" r="113.2"/>
<g class="st1">
	<path class="st2" d="M197,100.6c-55.8,0-111.7,0-167.5,0c0-12.5,0-25,0-37.4C69,2.9,157.4,2.9,197,63.2
		C197,75.7,197,88.2,197,100.6z"/>
</g>
<rect x="29.4" y="57.1" class="st3" width="167.5" height="43.5"/>
<text transform="matrix(1 0 0 1 40.1425 70.4263)"><tspan x="0" y="0" class="st2 st4 st5">Where am I on my </tspan><tspan x="-7" y="21.6" class="st2 st4 st5">Watson Fellowship?</tspan></text>
<rect x="24.5" y="127.6" class="st3" width="177.3" height="83.8"/>
<text transform="matrix(1 0 0 1 82.0629 146.8068)"><tspan x="0" y="0" class="st2 st6 st7">Kigali</tspan><tspan x="-6.2" y="26.4" class="st2 st8 st9">Rwanda</tspan></text>
<g class="st10">
	<path class="st11" d="M197,118.1c-55.8,0-111.7,0-167.5,0c0,15.2,0,30.3,0,45.5c39.6,60.3,127.9,60.3,167.5,0
		C197,148.5,197,133.3,197,118.1z"/>
</g>
</svg>
