<?xml version="1.0" encoding="utf-8"?>
<!-- Generator: Adobe Illustrator 21.1.0, SVG Export Plug-In . SVG Version: 6.00 Build 0)  -->
<svg version="1.1" xmlns="http://www.w3.org/2000/svg" xmlns:xlink="http://www.w3.org/1999/xlink" x="0px" y="0px"
	 viewBox="0 0 452.5 226.4" style="enable-background:new 0 0 452.5 226.4;" xml:space="preserve">
<style type="text/css">
	.st0{fill:#933D60;}
	.st1{fill:#ED7058;}
	.st2{fill:#298EBF;}
	.st3{fill:#3EAC6D;}
	.st4{fill:#02152A;}
	.st5{opacity:0.25;}
	.st6{fill:#D8D8D8;}
	.st7{fill:none;}
	.st8{font-family:'Lato-Medium';}
	.st9{font-size:16.942px;}
	.st10{font-family:'Lato-Regular';}
	.st11{font-size:37.6489px;}
	.st12{font-family:'Lato-Thin';}
	.st13{font-size:24.4718px;}
	.st14{display:none;opacity:0.25;}
	.st15{display:inline;fill:#D8D8D8;}
</style>
<g id="Layer_2">
	<g>
		<path class="st0" d="M185.8,78.4c-2,10.5-19.4,0.2-38.8-1.9c-25.3-6-53.9,11.7-56.5-10.6c2-10.5,19.4-0.2,38.8,1.9
			C154.5,73.8,183.2,56.1,185.8,78.4z"/>
	</g>
	<g>
		<path class="st1" d="M125.2,5c-2,10.5-19.4,0.2-38.8-1.9c-25.3-6-53.9,11.7-56.5-10.6c2-10.5,19.4-0.2,38.8,1.9
			C94,0.4,122.6-17.3,125.2,5z"/>
	</g>
	<g>
		<path class="st1" d="M298.2,159.5c-2,10.5-19.4,0.2-38.8-1.9c-25.3-6-53.9,11.7-56.5-10.6c2-10.5,19.4-0.2,38.8,1.9
			C266.9,154.8,295.6,137.1,298.2,159.5z"/>
	</g>
	<g>
		<path class="st2" d="M142.9,139.9c-2,10.5-19.4,0.2-38.8-1.9c-25.3-6-53.9,11.7-56.5-10.6c2-10.5,19.4-0.2,38.8,1.9
			C111.6,135.3,140.3,117.6,142.9,139.9z"/>
	</g>
	<g>
		<path class="st3" d="M342,99.3c-2,10.5-19.4,0.2-38.8-1.9c-25.3-6-53.9,11.7-56.5-10.6c2-10.5,19.4-0.2,38.8,1.9
			C310.7,94.7,339.4,77,342,99.3z"/>
	</g>
	<g>
		<path class="st2" d="M280.7,25.3c-2,10.5-19.4,0.2-38.8-1.9c-25.3-6-53.9,11.7-56.5-10.6c2-10.5,19.4-0.2,38.8,1.9
			C249.4,20.7,278.1,3,280.7,25.3z"/>
	</g>
	<g>
		<path class="st1" d="M437.5,45.8c-2,10.5-19.4,0.2-38.8-1.9c-25.3-6-53.9,11.7-56.5-10.6c2-10.5,19.4-0.2,38.8,1.9
			C406.3,41.2,434.9,23.5,437.5,45.8z"/>
	</g>
	<g>
		<path class="st0" d="M498.2,120.3c-2,10.5-19.4,0.2-38.8-1.9c-25.3-6-53.9,11.7-56.5-10.6c2-10.5,19.4-0.2,38.8,1.9
			C467,115.7,495.6,98,498.2,120.3z"/>
	</g>
	<g>
		<path class="st2" d="M455.3,181.2c-2,10.5-19.4,0.2-38.8-1.9c-25.3-6-53.9,11.7-56.5-10.6c2-10.5,19.4-0.2,38.8,1.9
			C424,176.6,452.6,158.9,455.3,181.2z"/>
	</g>
	<g>
		<path class="st3" d="M204.2,215.1c-2,10.5-19.4,0.2-38.8-1.9c-25.3-6-53.9,11.7-56.5-10.6c2-10.5,19.4-0.2,38.8,1.9
			C172.9,210.5,201.5,192.8,204.2,215.1z"/>
	</g>
	<g>
		<path class="st0" d="M359.9,235.5c-2,10.5-19.4,0.2-38.8-1.9c-25.3-6-53.9,11.7-56.5-10.6c2-10.5,19.4-0.2,38.8,1.9
			C328.6,230.8,357.3,213.1,359.9,235.5z"/>
	</g>
	<g>
		<path class="st3" d="M516,256c-2,10.5-19.4,0.2-38.8-1.9c-25.3-6-53.9,11.7-56.5-10.6c2-10.5,19.4-0.2,38.8,1.9
			C484.7,251.4,513.4,233.7,516,256z"/>
	</g>
	<g>
		<path class="st2" d="M593.5,66.6c-2,10.5-19.4,0.2-38.8-1.9c-25.3-6-53.9,11.7-56.5-10.6c2-10.5,19.4-0.2,38.8,1.9
			C562.2,62,590.8,44.3,593.5,66.6z"/>
	</g>
	<g>
		<path class="st1" d="M611.3,202.8c-2,10.5-19.4,0.2-38.8-1.9c-25.3-6-53.9,11.7-56.5-10.6c2-10.5,19.4-0.2,38.8,1.9
			C580,198.2,608.7,180.5,611.3,202.8z"/>
	</g>
	<g>
		<path class="st3" d="M28.6,59.5c-2,10.5-19.4,0.2-38.8-1.9c-25.3-6-53.9,11.7-56.5-10.6c2-10.5,19.4-0.2,38.8,1.9
			C-2.7,54.9,26,37.2,28.6,59.5z"/>
	</g>
	<g>
		<path class="st0" d="M46.5,195.7c-2,10.5-19.4,0.2-38.8-1.9c-25.3-6-53.9,11.7-56.5-10.6c2-10.5,19.4-0.2,38.8,1.9
			C15.2,191.1,43.8,173.4,46.5,195.7z"/>
	</g>
</g>
<g id="Layer_1">
	<circle class="st4" cx="226.1" cy="113.2" r="106.5"/>
	<g class="st5">
		<path class="st6" d="M305,101.4c-52.6,0-105.1,0-157.7,0c0-11.7,0-23.5,0-35.2c37.3-56.7,120.4-56.7,157.7,0
			C305,77.9,305,89.6,305,101.4z"/>
	</g>
	<rect x="147.3" y="60.4" class="st7" width="157.7" height="40.9"/>
	<text transform="matrix(1 0 0 1 157.3504 72.9401)"><tspan x="0" y="0" class="st6 st8 st9">Where am I on my </tspan><tspan x="-6.6" y="20.3" class="st6 st8 st9">Watson Fellowship?</tspan></text>
	<rect x="142.8" y="121.1" class="st7" width="166.9" height="78.8"/>
	<text transform="matrix(1 0 0 1 181.16 148.9025)"><tspan x="0" y="0" class="st6 st10 st11">Kigali</tspan><tspan x="3.5" y="29.4" class="st6 st12 st13">Rwanda</tspan></text>
	<g class="st14">
		<path class="st15" d="M423.1,118.1c-55.8,0-111.7,0-167.5,0c0,15.2,0,30.3,0,45.5c39.6,60.3,127.9,60.3,167.5,0
			C423.1,148.5,423.1,133.3,423.1,118.1z"/>
	</g>
</g>
</svg>
