<?xml version="1.0" encoding="utf-8"?>
<!-- Generator: Adobe Illustrator 21.1.0, SVG Export Plug-In . SVG Version: 6.00 Build 0)  -->
<svg version="1.1" xmlns="http://www.w3.org/2000/svg" xmlns:xlink="http://www.w3.org/1999/xlink" x="0px" y="0px"
	 viewBox="0 0 452.5 226.4" style="enable-background:new 0 0 452.5 226.4;" xml:space="preserve">
<style type="text/css">
	.st0{fill:#933D60;}
	.st1{fill:#ED7058;}
	.st2{fill:#298EBF;}
	.st3{fill:#3EAC6D;}
	.st4{fill:#02152A;}
	.st5{opacity:0.25;}
	.st6{fill:#D8D8D8;}
	.st7{fill:none;}
	.st8{font-family:'Lato';}
	.st9{font-size:14px;}
	.st10{opacity:0.9;}
	.st11{font-size:23px;}
	.st12{font-size:18px;}
	.st13{display:none;opacity:0.25;}
	.st14{display:inline;fill:#D8D8D8;}
</style>
<g id="Layer_2">
	<g>
		<path class="st0" d="M192.8,77.8c-2,10.6-19.5,0.3-38.9-1.8c-25.1-5.8-53.5,11.7-56.1-10.4c2-10.6,19.5-0.3,38.9,1.8
			C161.8,73.2,190.2,55.7,192.8,77.8z"/>
	</g>
	<g>
		<path class="st1" d="M132.7,4.8c-2,10.6-19.5,0.3-38.9-1.8C68.7-2.8,40.3,14.7,37.7-7.3c2-10.6,19.5-0.3,38.9,1.8
			C101.7,0.3,130.1-17.3,132.7,4.8z"/>
	</g>
	<g>
		<path class="st1" d="M304.5,158.2c-2,10.6-19.5,0.3-38.9-1.8c-25.1-5.8-53.5,11.7-56.1-10.4c2-10.6,19.5-0.3,38.9,1.8
			C273.6,153.6,301.9,136.1,304.5,158.2z"/>
	</g>
	<g>
		<path class="st2" d="M149.8,139.2c-2,10.6-19.5,0.3-38.9-1.8c-25.1-5.8-53.5,11.7-56.1-10.4c2-10.6,19.5-0.3,38.9,1.8
			C118.8,134.7,147.2,117.2,149.8,139.2z"/>
	</g>
	<g>
		<path class="st3" d="M348.4,98.1c-2,10.6-19.5,0.3-38.9-1.8c-25.1-5.8-53.5,11.7-56.1-10.4c2-10.6,19.5-0.3,38.9,1.8
			C317.4,93.6,345.8,76.1,348.4,98.1z"/>
	</g>
	<g>
		<path class="st2" d="M287.5,24.5c-2,10.6-19.5,0.3-38.9-1.8c-25.1-5.8-53.5,11.7-56.1-10.4c2-10.6,19.5-0.3,38.9,1.8
			C256.5,20,284.9,2.5,287.5,24.5z"/>
	</g>
	<g>
		<path class="st1" d="M443.8,44.5c-2,10.6-19.5,0.3-38.9-1.8c-25.1-5.8-53.5,11.7-56.1-10.4c2-10.6,19.5-0.3,38.9,1.8
			C412.8,39.9,441.2,22.4,443.8,44.5z"/>
	</g>
	<g>
		<path class="st0" d="M504,118.5c-2,10.6-19.5,0.3-38.9-1.8c-25.1-5.8-53.5,11.7-56.1-10.4c2-10.6,19.5-0.3,38.9,1.8
			C473,113.9,501.4,96.4,504,118.5z"/>
	</g>
	<g>
		<path class="st2" d="M461,179.3c-2,10.6-19.5,0.3-38.9-1.8c-25.1-5.8-53.5,11.7-56.1-10.4c2-10.6,19.5-0.3,38.9,1.8
			C430,174.8,458.4,157.3,461,179.3z"/>
	</g>
	<g>
		<path class="st3" d="M210.6,213.9c-2,10.6-19.5,0.3-38.9-1.8c-25.1-5.8-53.5,11.7-56.1-10.4c2-10.6,19.5-0.3,38.9,1.8
			C179.6,209.4,208,191.9,210.6,213.9z"/>
	</g>
	<g>
		<path class="st0" d="M365.8,233.7c-2,10.6-19.5,0.3-38.9-1.8c-25.1-5.8-53.5,11.7-56.1-10.4c2-10.6,19.5-0.3,38.9,1.8
			C334.8,229.2,363.2,211.7,365.8,233.7z"/>
	</g>
	<g>
		<path class="st2" d="M599.1,64.6c-2,10.6-19.5,0.3-38.9-1.8c-25.1-5.8-53.5,11.7-56.1-10.4c2-10.6,19.5-0.3,38.9,1.8
			C568.1,60.1,596.5,42.6,599.1,64.6z"/>
	</g>
	<g>
		<path class="st1" d="M616.4,200.3c-2,10.6-19.5,0.3-38.9-1.8c-25.1-5.8-53.5,11.7-56.1-10.4c2-10.6,19.5-0.3,38.9,1.8
			C585.4,195.8,613.8,178.3,616.4,200.3z"/>
	</g>
	<g>
		<path class="st3" d="M36.2,59.5c-2,10.6-19.5,0.3-38.9-1.8c-25.1-5.8-53.5,11.7-56.1-10.4c2-10.6,19.5-0.3,38.9,1.8
			C5.2,55,33.6,37.5,36.2,59.5z"/>
	</g>
	<g>
		<path class="st0" d="M53.5,195.1c-2,10.6-19.5,0.3-38.9-1.8c-25.1-5.8-53.5,11.7-56.1-10.4c2-10.6,19.5-0.3,38.9,1.8
			C22.5,190.6,50.9,173.1,53.5,195.1z"/>
	</g>
</g>
<g id="Layer_1">
	<ellipse class="st4" cx="226.1" cy="113.2" rx="99.2" ry="98.8"/>
	<g class="st5">
		<path class="st6" d="M299.5,102.3c-48.9,0-97.9,0-146.8,0c0-10.9,0-21.8,0-32.7c34.7-52.8,112.1-52.8,146.8,0
			C299.5,80.5,299.5,91.4,299.5,102.3z"/>
	</g>
	<rect x="152.7" y="64.3" class="st7" width="146.8" height="38"/>
	<text transform="matrix(1.0046 0 0 1 169.1566 74.6189)"><tspan x="0" y="0" class="st6 st8 st9">Where am I on my </tspan><tspan x="-5.3" y="16.8" class="st6 st8 st9">Watson Fellowship?</tspan></text>
	<rect x="148.5" y="120.6" class="st7" width="155.4" height="73.1"/>
	<text transform="matrix(1.0046 0 0 1 196.5242 137.5192)" class="st10"><tspan x="-10" y="0" class="st6 st8 st11">Copenhagen</tspan><tspan x="-6.6" y="21.6" class="st6 st8 st12">Denmark</tspan></text>
	<g class="st13">
		<path class="st14" d="M423.1,118.1c-55.8,0-111.7,0-167.5,0c0,15.2,0,30.3,0,45.5c39.6,60.3,127.9,60.3,167.5,0
			C423.1,148.5,423.1,133.3,423.1,118.1z"/>
	</g>
</g>
</svg>
